<?xml version="1.0" encoding="UTF-8" standalone="no"?>
<!-- Created with Inkscape (http://www.inkscape.org/) -->

<svg
   width="49.8158mm"
   height="49.674938mm"
   viewBox="0 0 49.8158 49.674938"
   version="1.1"
   id="svg1"
   inkscape:version="1.3 (0e150ed, 2023-07-21)"
   sodipodi:docname="logo_youtube.svg"
   xmlns:inkscape="http://www.inkscape.org/namespaces/inkscape"
   xmlns:sodipodi="http://sodipodi.sourceforge.net/DTD/sodipodi-0.dtd"
   xmlns="http://www.w3.org/2000/svg"
   xmlns:svg="http://www.w3.org/2000/svg">
  <sodipodi:namedview
     id="namedview1"
     pagecolor="#ffffff"
     bordercolor="#000000"
     borderopacity="0.25"
     inkscape:showpageshadow="false"
     inkscape:pageopacity="0.0"
     inkscape:pagecheckerboard="true"
     inkscape:deskcolor="#d1d1d1"
     inkscape:document-units="mm"
     showborder="false"
     borderlayer="false"
     inkscape:zoom="1.8799776"
     inkscape:cx="111.17153"
     inkscape:cy="93.086213"
     inkscape:window-width="1280"
     inkscape:window-height="747"
     inkscape:window-x="0"
     inkscape:window-y="25"
     inkscape:window-maximized="1"
     inkscape:current-layer="layer1" />
  <defs
     id="defs1" />
  <g
     inkscape:label="Calque 1"
     inkscape:groupmode="layer"
     id="layer1"
     transform="translate(-121.06459,-138.73669)">
    <path
       d="m 151.26069,188.04965 c 9.19303,-1.93381 16.61965,-9.09894 18.94911,-18.28191 0.79395,-3.12987 0.89706,-8.17849 0.2335,-11.43277 -1.91159,-9.37483 -9.8493,-17.33758 -19.18026,-19.24073 -2.79415,-0.5699 -9.33741,-0.43578 -11.73746,0.24058 -7.14476,2.0135 -13.14042,7.04925 -16.21866,13.62204 -2.67257,5.70659 -2.98291,13.36176 -0.78693,19.41159 2.75913,7.60136 10.30385,14.11024 18.17665,15.68115 2.41896,0.48268 8.26964,0.48271 10.56405,5e-5 z m -17.04635,-14.16296 c -1.8787,-0.73021 -3.15871,-1.88969 -4.01807,-3.63971 -0.7389,-1.5047 -0.74443,-1.55425 -0.74443,-6.67533 0,-4.8573 0.0358,-5.2321 0.61186,-6.40156 0.86956,-1.76538 2.47883,-3.26896 4.17993,-3.90542 1.36531,-0.51083 2.01893,-0.54094 11.74467,-0.54094 12.1207,0 12.22547,0.0182 14.51704,2.52557 1.89335,2.07163 2.01942,2.59943 2.01942,8.45464 0,4.69834 -0.0394,5.10715 -0.6032,6.25139 -0.79289,1.60932 -2.10266,2.92859 -3.67705,3.70371 -1.27288,0.6267 -1.30215,0.62836 -11.99162,0.68504 -10.05857,0.0533 -10.79675,0.0254 -12.03855,-0.45739 z m 14.21509,-6.6451 c 3.31405,-1.89446 6.02554,-3.54593 6.02554,-3.66994 0,-0.20729 -11.46657,-6.89011 -12.50783,-7.28968 -0.42596,-0.16345 -0.45675,0.32793 -0.45675,7.28968 0,6.96175 0.0308,7.45313 0.45675,7.28967 0.25121,-0.0964 3.16825,-1.72528 6.48229,-3.61973 z"
       style="fill:#ff008c;stroke-width:0.264583;fill-opacity:1"
       id="path1" />
  </g>
</svg>
