<?xml version="1.0" encoding="UTF-8" standalone="no"?>
<!-- Created with Inkscape (http://www.inkscape.org/) -->

<svg
   width="49.784382mm"
   height="49.590279mm"
   viewBox="0 0 49.784382 49.590279"
   version="1.1"
   id="svg1"
   inkscape:version="1.3 (0e150ed, 2023-07-21)"
   sodipodi:docname="logo_insta.svg"
   xmlns:inkscape="http://www.inkscape.org/namespaces/inkscape"
   xmlns:sodipodi="http://sodipodi.sourceforge.net/DTD/sodipodi-0.dtd"
   xmlns="http://www.w3.org/2000/svg"
   xmlns:svg="http://www.w3.org/2000/svg">
  <sodipodi:namedview
     id="namedview1"
     pagecolor="#ffffff"
     bordercolor="#000000"
     borderopacity="0.25"
     inkscape:showpageshadow="false"
     inkscape:pageopacity="0.0"
     inkscape:pagecheckerboard="true"
     inkscape:deskcolor="#d1d1d1"
     inkscape:document-units="mm"
     showborder="false"
     borderlayer="false"
     inkscape:zoom="1.5573023"
     inkscape:cx="92.467599"
     inkscape:cy="109.80527"
     inkscape:window-width="1280"
     inkscape:window-height="747"
     inkscape:window-x="0"
     inkscape:window-y="25"
     inkscape:window-maximized="1"
     inkscape:current-layer="layer1" />
  <defs
     id="defs1" />
  <g
     inkscape:label="Calque 1"
     inkscape:groupmode="layer"
     id="layer1"
     transform="translate(-97.156056,-93.589358)">
    <path
       d="m 127.53642,142.65461 c 2.79905,-0.62304 6.62891,-2.34203 9.02105,-4.04902 2.01615,-1.4387 5.16797,-4.72639 6.44526,-6.72312 2.97586,-4.65202 4.41006,-10.79609 3.79909,-16.27527 -1.09442,-9.81487 -7.46402,-17.689029 -17.04359,-21.069438 l -2.68764,-0.948404 -5.02708,0.01048 c -4.79711,0.01 -5.12997,0.04472 -7.27604,0.758881 -8.68562,2.890369 -14.65964,9.099961 -16.974257,17.643591 -0.850058,3.13772 -0.84946,9.4079 0.0013,12.5433 2.602137,9.59109 10.431597,16.75032 20.103307,18.38242 2.52136,0.42548 7.07971,0.29618 9.6387,-0.27342 z m -15.0343,-8.4274 c -1.33463,-0.33229 -3.53775,-1.65404 -4.40684,-2.6439 -0.44821,-0.51046 -1.12462,-1.58843 -1.50314,-2.39543 l -0.68821,-1.46727 v -9.525 c 0,-9.40081 0.008,-9.54109 0.60769,-10.75858 0.92094,-1.86947 2.54074,-3.54425 4.23036,-4.37396 l 1.51195,-0.74246 9.24766,-0.0791 c 8.02157,-0.0687 9.42475,-0.0213 10.58333,0.35733 2.63084,0.85968 4.79778,3.05308 5.73719,5.80722 0.2771,0.81239 0.36098,3.14888 0.36098,10.05417 v 8.99583 l -0.76187,1.64949 c -0.88439,1.91477 -2.74323,3.79315 -4.60461,4.65307 -1.19887,0.55388 -1.60814,0.57846 -10.37622,0.62347 -5.02047,0.0257 -9.49269,-0.0439 -9.93827,-0.15484 z m 19.27333,-2.76233 c 1.25876,-0.5275 2.51788,-1.68344 3.1781,-2.91766 0.56037,-1.04756 0.58718,-1.42451 0.67049,-9.42557 0.0572,-5.49066 -0.0144,-8.79657 -0.2097,-9.68897 -0.35323,-1.61389 -1.678,-3.28842 -3.27894,-4.14464 -1.05213,-0.56269 -1.42474,-0.58973 -9.29814,-0.6747 -5.48014,-0.0591 -8.65657,0.0116 -9.5716,0.21304 -1.88162,0.41431 -3.30694,1.51669 -4.15099,3.21049 l -0.6972,1.39909 0.002,8.61316 c 7.9e-4,5.25571 0.1109,9.00721 0.28219,9.62407 0.35863,1.29149 1.92724,3.03501 3.28821,3.65485 0.95617,0.43545 1.92117,0.48255 9.99651,0.48781 6.91196,0.004 9.1312,-0.0751 9.78959,-0.35097 z m -11.52199,-5.20843 c -3.29748,-0.82436 -5.86765,-3.65178 -6.40851,-7.04994 -0.21816,-1.37063 0.39718,-3.91564 1.28786,-5.32657 1.36055,-2.15525 3.65692,-3.50619 6.28,-3.6945 2.19104,-0.15728 3.99856,0.40109 5.72935,1.76989 1.82974,1.44707 2.77164,3.33936 2.91765,5.8616 0.1033,1.78438 0.0311,2.21437 -0.61199,3.64749 -0.82598,1.84052 -2.47596,3.52348 -4.20374,4.28776 -1.37721,0.60921 -3.6516,0.83902 -4.99062,0.50427 z m 4.70175,-3.16684 c 3.64676,-2.25382 3.41091,-7.84556 -0.41321,-9.79647 -1.2074,-0.61597 -3.5532,-0.69627 -4.82209,-0.16506 -1.75709,0.73558 -3.35885,3.19724 -3.36346,5.16912 -0.005,1.96863 1.46212,4.24559 3.28709,5.10294 1.43892,0.67598 3.95331,0.52898 5.31167,-0.31053 z m 4.67505,-12.51783 c -0.74634,-0.79444 -0.73161,-1.79437 0.0371,-2.51651 0.79444,-0.74634 1.79437,-0.73161 2.51651,0.0371 0.74634,0.79444 0.7316,1.79437 -0.0371,2.51651 -0.79444,0.74634 -1.79437,0.73161 -2.51651,-0.0371 z"
       style="fill:#ff008c;stroke-width:0.264583;fill-opacity:1"
       id="path1" />
  </g>
</svg>
