<?xml version="1.0" encoding="UTF-8" standalone="no"?>
<!-- Created with Inkscape (http://www.inkscape.org/) -->

<svg
   version="1.1"
   id="svg1"
   width="49.672058"
   height="49.801998"
   viewBox="0 0 49.672057 49.801999"
   sodipodi:docname="logo_bc.svg"
   inkscape:version="1.3 (0e150ed, 2023-07-21)"
   xmlns:inkscape="http://www.inkscape.org/namespaces/inkscape"
   xmlns:sodipodi="http://sodipodi.sourceforge.net/DTD/sodipodi-0.dtd"
   xmlns="http://www.w3.org/2000/svg"
   xmlns:svg="http://www.w3.org/2000/svg">
  <defs
     id="defs1" />
  <sodipodi:namedview
     id="namedview1"
     pagecolor="#ffffff"
     bordercolor="#000000"
     borderopacity="0.25"
     inkscape:showpageshadow="false"
     inkscape:pageopacity="0.0"
     inkscape:pagecheckerboard="true"
     inkscape:deskcolor="#d1d1d1"
     showborder="false"
     borderlayer="false"
     shape-rendering="auto"
     showgrid="true"
     inkscape:zoom="5.1539676"
     inkscape:cx="7.0819227"
     inkscape:cy="6.5968595"
     inkscape:window-width="1280"
     inkscape:window-height="747"
     inkscape:window-x="0"
     inkscape:window-y="25"
     inkscape:window-maximized="1"
     inkscape:current-layer="g6">
    <inkscape:grid
       id="grid4"
       units="px"
       originx="-281.21185"
       originy="-265.29504"
       spacingx="1"
       spacingy="1"
       empcolor="#0099e5"
       empopacity="0.30196078"
       color="#0099e5"
       opacity="0.14901961"
       empspacing="5"
       dotted="false"
       gridanglex="30"
       gridanglez="30"
       visible="true" />
  </sodipodi:namedview>
  <g
     inkscape:groupmode="layer"
     inkscape:label="Image"
     id="g1"
     transform="translate(-281.21183,-265.29505)">
    <g
       id="g6">
      <path
         id="path3"
         style="fill:#ff008c;fill-opacity:1;stroke-width:0.26508"
         d="M 306.09855 265.29505 C 305.60158 265.29505 305.12738 265.30219 304.67081 265.31849 C 304.21425 265.33499 303.77497 265.36006 303.3505 265.39466 C 302.92602 265.42926 302.51685 265.47517 302.11613 265.52943 C 301.71541 265.58372 301.32368 265.64712 300.93839 265.72278 C 300.55311 265.79848 300.17398 265.88584 299.79581 265.9845 C 299.41764 266.0832 299.04044 266.19322 298.66105 266.31653 C 298.28167 266.43983 297.89958 266.57516 297.51066 266.72474 C 297.12173 266.87431 296.72604 267.03749 296.31925 267.21497 C 295.90999 267.39353 295.51001 267.58011 295.11808 267.77161 C 294.72615 267.96311 294.34264 268.16054 293.96769 268.36536 C 293.59274 268.57018 293.22641 268.78162 292.86808 269.00013 C 292.50975 269.21863 292.15937 269.44334 291.8173 269.67591 C 291.47523 269.90849 291.13956 270.1496 290.81339 270.39661 C 290.48722 270.64362 290.1709 270.89651 289.86027 271.15833 C 289.54964 271.42016 289.24555 271.68991 288.95011 271.96693 C 288.65466 272.24393 288.36745 272.52786 288.08683 272.82044 C 287.80621 273.11301 287.53267 273.41427 287.26652 273.72278 C 287.00036 274.03129 286.74121 274.34718 286.48917 274.672 C 286.23712 274.99682 285.99115 275.3305 285.75285 275.672 C 285.51455 276.01351 285.2844 276.36422 285.05949 276.72278 C 284.83458 277.08134 284.61512 277.44836 284.40324 277.82435 C 284.19136 278.20034 283.9872 278.58484 283.788 278.97864 C 283.58879 279.37244 283.39481 279.77565 283.20792 280.18763 C 283.02102 280.59961 282.83989 281.02077 282.66496 281.4513 C 282.51526 281.81971 282.37913 282.18015 282.2548 282.53919 C 282.13047 282.89823 282.01912 283.25484 281.91886 283.61341 C 281.81861 283.97198 281.72875 284.33235 281.65128 284.69935 C 281.57378 285.06635 281.50806 285.44001 281.45206 285.82435 C 281.39606 286.20869 281.35117 286.60517 281.31535 287.01575 C 281.27955 287.42633 281.25217 287.85127 281.23527 288.297 C 281.21837 288.74273 281.21113 289.20957 281.21183 289.69935 C 281.21236 290.18913 281.22227 290.70153 281.23917 291.24427 C 281.26637 292.11424 281.29262 292.80783 281.32902 293.39271 C 281.36542 293.97759 281.41074 294.45434 281.47746 294.89271 C 281.51085 295.11189 281.54973 295.32089 281.59464 295.52943 C 281.63954 295.73796 281.69177 295.94702 281.75089 296.16224 C 281.86906 296.59267 282.01722 297.05232 282.20792 297.61341 C 282.4213 298.24124 282.64746 298.84993 282.88761 299.43958 C 283.12777 300.02923 283.38261 300.60036 283.65128 301.15443 C 283.91996 301.70849 284.20194 302.24466 284.50089 302.76575 C 284.79984 303.28683 285.11523 303.79264 285.44621 304.28333 C 285.77717 304.77403 286.12442 305.25011 286.48917 305.71302 C 286.85392 306.17592 287.23538 306.62688 287.63566 307.06458 C 288.03593 307.50228 288.45592 307.92683 288.89347 308.34193 C 289.33102 308.75701 289.78603 309.16168 290.26261 309.55677 C 290.62573 309.85781 291.00692 310.15073 291.40128 310.43568 C 291.79564 310.72063 292.20342 310.99739 292.62394 311.2638 C 293.04447 311.53021 293.47724 311.78792 293.91886 312.03333 C 294.36048 312.27874 294.81084 312.51256 295.26847 312.7345 C 295.72611 312.95645 296.19051 313.16543 296.6591 313.36146 C 297.12769 313.55748 297.60065 313.74069 298.07511 313.90833 C 298.54957 314.07597 299.02563 314.22856 299.50089 314.36536 C 299.97615 314.50215 300.45178 314.62319 300.92277 314.72669 C 301.20208 314.78809 301.53419 314.84068 301.90714 314.88685 C 302.2801 314.93305 302.6935 314.97306 303.13371 315.00403 C 303.57391 315.03493 304.04131 315.05669 304.52238 315.07239 C 305.00346 315.08809 305.49755 315.09738 305.99308 315.09778 C 306.48863 315.09831 306.98603 315.08905 307.46964 315.07435 C 307.95326 315.05945 308.42278 315.03814 308.86808 315.00794 C 309.31337 314.97774 309.73359 314.94015 310.11417 314.89466 C 310.49475 314.84916 310.83642 314.79538 311.12589 314.7345 C 311.60108 314.6345 312.07129 314.52224 312.53605 314.39661 C 313.00081 314.27099 313.45945 314.13323 313.913 313.98255 C 314.36655 313.83186 314.8152 313.66744 315.25675 313.49232 C 315.69831 313.31719 316.13266 313.13074 316.56144 312.93177 C 316.99022 312.73281 317.4138 312.52115 317.82902 312.29896 C 318.24423 312.07677 318.65079 311.84259 319.05167 311.59778 C 319.45254 311.35298 319.84757 311.09897 320.23331 310.83216 C 320.61905 310.56535 320.9963 310.28637 321.36613 309.99818 C 321.73596 309.70998 322.09697 309.41263 322.45011 309.10364 C 322.80324 308.79466 323.14961 308.47382 323.48527 308.14466 C 323.82092 307.81551 324.14638 307.47775 324.46378 307.12903 C 324.78117 306.78031 325.08926 306.42053 325.38761 306.05286 C 325.68596 305.68519 325.97433 305.30997 326.25285 304.92396 C 326.53137 304.53795 326.79962 304.14215 327.05753 303.73841 C 327.31544 303.33467 327.5632 302.92099 327.79972 302.50013 C 328.03623 302.07928 328.26313 301.65038 328.47746 301.21302 C 328.73761 300.68214 328.97054 300.19389 329.17863 299.73646 C 329.38671 299.27902 329.56975 298.853 329.73136 298.44349 C 329.89296 298.03397 330.03254 297.64116 330.15324 297.25403 C 330.27394 296.86689 330.37644 296.48611 330.46183 296.09583 C 330.54723 295.70555 330.61515 295.30582 330.67081 294.88685 C 330.72651 294.46789 330.76818 294.02994 330.79972 293.55677 C 330.83122 293.08359 330.85323 292.5765 330.86613 292.02357 C 330.87913 291.47065 330.88371 290.87122 330.88371 290.21302 C 330.88371 289.57742 330.87823 288.99736 330.86613 288.46107 C 330.85393 287.92478 330.83478 287.43128 330.80558 286.97083 C 330.77648 286.51039 330.73741 286.082 330.68644 285.67396 C 330.63554 285.26591 330.5725 284.87923 330.49503 284.50013 C 330.41753 284.12103 330.3265 283.75069 330.21769 283.37708 C 330.10887 283.00347 329.98373 282.62607 329.83878 282.2345 C 329.69383 281.84293 329.52858 281.43702 329.34269 281.00403 C 329.15681 280.57105 328.9493 280.11126 328.71769 279.61341 C 328.55378 279.26109 328.38333 278.9154 328.20597 278.57435 C 328.02861 278.2333 327.84395 277.89621 327.65324 277.56653 C 327.46254 277.23685 327.26539 276.91404 327.06144 276.59583 C 326.8575 276.27762 326.64766 275.96497 326.43058 275.65833 C 326.21349 275.35169 325.98882 275.05096 325.75871 274.75599 C 325.52859 274.46102 325.29277 274.172 325.04972 273.8888 C 324.80667 273.6056 324.55755 273.3281 324.30167 273.05677 C 324.0458 272.78544 323.78316 272.51925 323.51456 272.25989 C 323.24596 272.00054 322.97157 271.74741 322.69035 271.50013 C 322.40913 271.25285 322.12079 271.01259 321.82706 270.77747 C 321.53333 270.54237 321.23281 270.31281 320.92667 270.08997 C 320.62053 269.86714 320.30958 269.65005 319.99113 269.43958 C 319.67268 269.22912 319.34717 269.02429 319.01652 268.8263 C 318.68587 268.62832 318.3495 268.43749 318.00675 268.25208 C 317.664 268.06667 317.31462 267.88771 316.95988 267.71497 C 316.60514 267.54224 316.24448 267.37494 315.87785 267.21497 C 315.47106 267.03749 315.07537 266.87432 314.68644 266.72474 C 314.29752 266.57516 313.91544 266.43983 313.53605 266.31653 C 313.15666 266.19323 312.77945 266.08317 312.40128 265.9845 C 312.02311 265.8858 311.64398 265.79845 311.25871 265.72278 C 310.87343 265.64708 310.48364 265.58371 310.08292 265.52943 C 309.6822 265.47513 309.27109 265.42922 308.8466 265.39466 C 308.42213 265.36006 307.98284 265.33499 307.52628 265.31849 C 307.06971 265.30199 306.59552 265.29505 306.09855 265.29505 z M 325.39542 276.05091 L 310.04386 301.9181 C 310.73578 301.8906 296.4888 301.86347 285.97355 301.83607 L 300.50871 276.27357 L 325.39542 276.05091 z " />
      <path
         style="fill:#ff008c;fill-opacity:1;stroke-width:0.26508"
         d="m 310.26954,294.60175 c -3.34049,-0.49917 -4.70767,-3.98335 -2.53434,-6.45862 1.18586,-1.35063 3.74415,-1.8695 5.75733,-1.16771 0.74327,0.25911 0.83479,0.40399 0.83479,1.32151 v 1.03049 l -0.86151,-0.52527 c -1.28849,-0.78561 -2.93411,-0.7079 -3.62561,0.17119 -0.59364,0.75469 -0.73986,2.42657 -0.28636,3.27396 0.57597,1.0762 2.75764,1.24804 4.17705,0.329 0.57911,-0.37496 0.59643,-0.35879 0.59643,0.55645 0,0.51844 -0.11131,1.01142 -0.24736,1.0955 -0.5654,0.34944 -2.62224,0.55105 -3.81042,0.3735 z m -13.7026,-5.39907 v -5.43415 h 1.19287 1.19286 v 1.9881 c 0,1.09346 0.0568,1.9881 0.12613,1.9881 0.0694,0 0.51669,-0.23812 0.99405,-0.52916 1.6745,-1.02095 3.76295,-0.49049 4.5433,1.15398 0.94634,1.99428 0.33324,4.73411 -1.2829,5.73293 -0.96247,0.59484 -2.76409,0.70878 -3.65637,0.23125 -0.42491,-0.2274 -0.59156,-0.2274 -0.66736,0 -0.0556,0.1667 -0.62788,0.30309 -1.27181,0.30309 h -1.17077 z m 5.4044,3.34638 c 0.62117,-0.6864 0.8287,-2.24496 0.42779,-3.21284 -0.38576,-0.93129 -1.24071,-1.23812 -2.47028,-0.88655 l -0.84364,0.24123 -0.077,2.17772 -0.077,2.17772 h 1.29504 c 0.92985,0 1.42195,-0.14023 1.74508,-0.49728 z"
         id="path5" />
    </g>
  </g>
</svg>
