<?xml version="1.0" encoding="UTF-8" standalone="no"?>
<!-- Created with Inkscape (http://www.inkscape.org/) -->

<svg
   width="49.578491mm"
   height="49.654213mm"
   viewBox="0 0 49.578491 49.654213"
   version="1.1"
   id="svg1"
   inkscape:version="1.3 (0e150ed, 2023-07-21)"
   sodipodi:docname="logo_fb.svg"
   xmlns:inkscape="http://www.inkscape.org/namespaces/inkscape"
   xmlns:sodipodi="http://sodipodi.sourceforge.net/DTD/sodipodi-0.dtd"
   xmlns="http://www.w3.org/2000/svg"
   xmlns:svg="http://www.w3.org/2000/svg">
  <sodipodi:namedview
     id="namedview1"
     pagecolor="#ffffff"
     bordercolor="#000000"
     borderopacity="0.25"
     inkscape:showpageshadow="false"
     inkscape:pageopacity="0.0"
     inkscape:pagecheckerboard="true"
     inkscape:deskcolor="#d1d1d1"
     inkscape:document-units="mm"
     showborder="false"
     borderlayer="false"
     inkscape:zoom="1.592252"
     inkscape:cx="108.65115"
     inkscape:cy="84.157535"
     inkscape:window-width="1280"
     inkscape:window-height="747"
     inkscape:window-x="0"
     inkscape:window-y="25"
     inkscape:window-maximized="1"
     inkscape:current-layer="layer1" />
  <defs
     id="defs1" />
  <g
     inkscape:label="Calque 1"
     inkscape:groupmode="layer"
     id="layer1"
     transform="translate(-18.083198,-106.16135)">
    <path
       d="m 49.283091,155.12355 c 8.967681,-2.35624 16.115665,-9.89459 17.990952,-18.97344 0.525886,-2.54601 0.514906,-7.74912 -0.02196,-10.35889 -1.988847,-9.66974 -9.666817,-17.27607 -19.437191,-19.2558 -3.262361,-0.66104 -8.836205,-0.41992 -11.97183,0.51788 -8.323569,2.48942 -14.482585,8.64423 -17.028604,17.01696 -0.634513,2.08664 -0.710041,2.76541 -0.730017,6.56076 -0.02495,4.73947 0.316711,6.62956 1.847326,10.21956 3.210412,7.52993 10.145707,13.1445 18.106432,14.65837 2.824348,0.5371 8.470365,0.34358 11.244786,-0.3854 z M 38.832055,139.09769 v -7.01146 h -2.38125 -2.38125 v -2.64583 -2.64583 h 2.38125 2.38125 v -2.59782 c 0,-3.09867 0.489534,-4.97479 1.639953,-6.28504 1.365319,-1.55501 2.629961,-2.05022 5.562764,-2.17829 1.414881,-0.0618 2.873404,-0.0368 3.241149,0.0555 0.649367,0.16298 0.668628,0.23245 0.668628,2.41173 v 2.24392 l -1.521354,0.002 c -1.94632,0.002 -3.426754,0.41493 -3.767193,1.05104 -0.147233,0.27511 -0.267697,1.57959 -0.267697,2.89884 v 2.39865 h 2.645833 c 1.95262,0 2.639769,0.0867 2.622703,0.33073 -0.0127,0.1819 -0.163327,1.34276 -0.334671,2.57968 l -0.311521,2.24896 -2.311167,0.0764 -2.311177,0.0765 v 7.00115 7.00115 H 41.61018 38.832055 Z"
       style="fill:#ff008c;stroke-width:0.264583;fill-opacity:1"
       id="path1" />
  </g>
</svg>
