<?xml version="1.0" encoding="UTF-8" standalone="no"?>
<!-- Created with Inkscape (http://www.inkscape.org/) -->

<svg
   version="1.1"
   id="svg1"
   width="741.30261"
   height="200.633"
   viewBox="0 0 741.30266 200.633"
   sodipodi:docname="rosacanine_logo_1_ligne.svg"
   inkscape:version="1.3 (0e150ed, 2023-07-21)"
   xmlns:inkscape="http://www.inkscape.org/namespaces/inkscape"
   xmlns:sodipodi="http://sodipodi.sourceforge.net/DTD/sodipodi-0.dtd"
   xmlns="http://www.w3.org/2000/svg"
   xmlns:svg="http://www.w3.org/2000/svg">
  <defs
     id="defs1">
    <clipPath
       clipPathUnits="userSpaceOnUse"
       id="clipPath2">
      <path
         d="M 2618.05,6800.4 H 6868.42 V 283.572 H 2618.05 Z"
         transform="translate(-6823.8742,-6799.3967)"
         id="path2" />
    </clipPath>
    <clipPath
       clipPathUnits="userSpaceOnUse"
       id="clipPath4">
      <path
         d="M 0,0 H 7086.614 V 7086.614 H 0 Z"
         transform="matrix(1.3333333,0,0,-1.3333333,0,9448.8133)"
         id="path4" />
    </clipPath>
    <clipPath
       clipPathUnits="userSpaceOnUse"
       id="clipPath5">
      <path
         d="M 230.072,6811.02 H 2939.76 V 260.179 H 230.072 Z"
         transform="translate(-2739.9181,-6758.6184)"
         id="path5" />
    </clipPath>
    <clipPath
       clipPathUnits="userSpaceOnUse"
       id="clipPath7">
      <path
         d="M 0,0 H 7086.614 V 7086.614 H 0 Z"
         transform="matrix(1.3333333,0,0,-1.3333333,0,9448.8133)"
         id="path7" />
    </clipPath>
    <clipPath
       clipPathUnits="userSpaceOnUse"
       id="clipPath9">
      <path
         d="M 0,0 H 7086.614 V 7086.614 H 0 Z"
         transform="translate(-761.83404,-6885.7697)"
         id="path9" />
    </clipPath>
    <clipPath
       clipPathUnits="userSpaceOnUse"
       id="clipPath11">
      <path
         d="M 0,0 H 7086.614 V 7086.614 H 0 Z"
         transform="translate(-4875.7301,-6071.2751)"
         id="path11" />
    </clipPath>
    <clipPath
       clipPathUnits="userSpaceOnUse"
       id="clipPath13">
      <path
         d="M 0,0 H 7086.614 V 7086.614 H 0 Z"
         transform="translate(-4672.0987,-6519.6398)"
         id="path13" />
    </clipPath>
    <clipPath
       clipPathUnits="userSpaceOnUse"
       id="clipPath15">
      <path
         d="M 0,0 H 7086.614 V 7086.614 H 0 Z"
         transform="translate(-3751.3807,-6450.0129)"
         id="path15" />
    </clipPath>
  </defs>
  <sodipodi:namedview
     id="namedview1"
     pagecolor="#ffffff"
     bordercolor="#000000"
     borderopacity="0.25"
     inkscape:showpageshadow="false"
     inkscape:pageopacity="0.0"
     inkscape:pagecheckerboard="true"
     inkscape:deskcolor="#d1d1d1"
     showborder="false"
     borderlayer="false"
     shape-rendering="auto"
     inkscape:zoom="0.54758196"
     inkscape:cx="874.7549"
     inkscape:cy="30.132476"
     inkscape:window-width="1280"
     inkscape:window-height="800"
     inkscape:window-x="0"
     inkscape:window-y="0"
     inkscape:window-maximized="0"
     inkscape:current-layer="g1">
    <inkscape:page
       x="0"
       y="0"
       inkscape:label="1"
       id="page1"
       width="741.30267"
       height="200.633"
       margin="0"
       bleed="0" />
  </sodipodi:namedview>
  <g
     id="g1"
     inkscape:groupmode="layer"
     inkscape:label="1"
     transform="translate(-6387.0045,-610.07653)">
    <g
       id="g15"
       transform="matrix(0.26793733,0,0,0.26793733,5120.0801,446.61425)">
      <path
         id="path10"
         d="m 0,0 h 21.188 c 4.708,0 7.651,3.531 7.062,9.417 L -34.725,416.7 c -0.589,5.885 -3.531,9.417 -10.005,9.417 h -41.2 c -6.474,0 -9.417,-3.532 -10.005,-9.417 L -158.911,9.417 C -159.5,4.12 -157.146,0 -151.849,0 h 21.189 c 5.885,0 8.24,4.12 8.828,8.829 l 13.537,87.695 h 85.93 L -8.829,8.829 C -8.24,3.531 -5.297,0 0,0 m -78.867,289.571 12.36,100.055 h 2.354 l 12.36,-100.055 24.13,-160.088 h -75.923 z m 270.146,-121.832 3.532,-83.575 h -2.354 L 174.8,165.385 111.235,417.289 c -1.765,6.474 -4.119,8.828 -10.005,8.828 H 72.979 c -5.886,0 -8.828,-2.943 -8.828,-8.828 V 8.829 C 64.151,2.943 67.093,0 72.979,0 h 18.834 c 5.886,0 8.828,2.943 8.828,8.829 v 249.548 l -3.531,83.576 h 2.354 L 117.121,260.732 180.686,8.829 C 182.451,2.354 184.805,0 190.691,0 h 28.251 c 5.886,0 8.828,2.943 8.828,8.829 v 408.46 c 0,5.885 -2.942,8.828 -8.828,8.828 h -18.834 c -5.886,0 -8.829,-2.943 -8.829,-8.828 z m 133.684,202.936 c 0,6.915 -3.458,10.373 -10.374,10.373 h -19.363 c -6.916,0 -10.373,-3.458 -10.373,-10.373 V 10.374 C 284.853,3.458 288.31,0 295.226,0 h 19.363 c 6.916,0 10.374,3.458 10.374,10.374 z m -47.026,92.668 c 0,-15.906 11.065,-26.97 26.971,-26.97 15.905,0 26.97,11.064 26.97,26.97 0,15.907 -11.065,26.971 -26.97,26.971 -15.906,0 -26.971,-11.064 -26.971,-26.971 m 232.265,-295.604 3.531,-83.575 h -2.355 l -17.656,81.221 -63.564,251.904 c -1.766,6.474 -4.12,8.828 -10.006,8.828 h -28.251 c -5.885,0 -8.828,-2.943 -8.828,-8.828 V 8.829 C 383.073,2.943 386.016,0 391.901,0 h 18.834 c 5.886,0 8.828,2.943 8.828,8.829 v 249.548 l -3.531,83.576 h 2.354 L 436.043,260.732 499.607,8.829 C 501.373,2.354 503.728,0 509.613,0 h 28.251 c 5.886,0 8.828,2.943 8.828,8.829 v 408.46 c 0,5.885 -2.942,8.828 -8.828,8.828 H 519.03 c -5.886,0 -8.828,-2.943 -8.828,-8.828 z m 98.281,258.378 c -5.886,0 -8.828,-2.943 -8.828,-8.828 V 8.829 C 599.655,2.943 602.597,0 608.483,0 h 128.306 c 5.885,0 8.829,2.943 8.829,8.829 v 15.302 c 0,5.886 -2.944,8.828 -8.829,8.828 H 636.145 v 163.62 h 78.278 c 5.886,0 8.829,2.942 8.829,8.828 v 15.303 c 0,5.885 -2.943,8.828 -8.829,8.828 h -78.278 v 163.62 h 100.644 c 5.885,0 8.829,2.943 8.829,8.828 v 15.303 c 0,5.885 -2.944,8.828 -8.829,8.828 z"
         style="fill:#ffffff;fill-opacity:1;fill-rule:nonzero;stroke:none"
         transform="matrix(1.3333333,0,0,-1.3333333,6500.9733,1353.7801)"
         clip-path="url(#clipPath11)" />
      <path
         id="path12"
         d="m 0,0 c 0,68.861 -16.833,109.413 -106.353,109.413 -89.52,0 -106.352,-40.552 -106.352,-109.413 v -342.777 c 0,-69.627 16.832,-109.413 106.352,-109.413 89.52,0 106.353,39.786 106.353,109.413 v 94.11 c 0,7.652 -3.826,11.478 -11.477,11.478 h -24.484 c -7.651,0 -11.477,-3.826 -11.477,-11.478 v -94.11 c 0,-42.082 -9.181,-66.566 -58.915,-66.566 -49.733,0 -58.915,24.484 -58.915,66.566 V 0 c 0,42.082 9.182,66.566 58.915,66.566 49.734,0 58.915,-24.484 58.915,-66.566 v -94.111 c 0,-7.651 3.826,-11.477 11.477,-11.477 h 24.484 c 7.651,0 11.477,3.826 11.477,11.477 z"
         style="fill:#ff008c;fill-opacity:1;fill-rule:nonzero;stroke:none"
         transform="matrix(1.3333333,0,0,-1.3333333,6229.4648,755.96053)"
         clip-path="url(#clipPath13)" />
      <path
         id="path14"
         d="m 0,0 v 52.029 c 0,77.278 -18.363,123.185 -119.36,123.185 h -74.217 c -7.652,0 -11.477,-3.825 -11.477,-11.477 v -530.998 c 0,-7.651 3.825,-11.477 11.477,-11.477 h 24.484 c 7.651,0 11.477,3.826 11.477,11.477 v 244.075 h 32.9 l 94.876,-247.135 c 2.295,-6.121 6.121,-8.417 12.242,-8.417 h 29.075 c 6.886,0.765 9.947,6.886 7.651,13.772 l -94.11,245.607 C -13.007,-107.118 0,-65.036 0,0 m -157.616,-80.338 v 212.705 h 38.256 c 61.21,0 71.922,-29.84 71.922,-80.338 V 0 c 0,-51.263 -10.712,-80.338 -71.922,-80.338 z m 301.218,97.701 c 38.257,0 45.319,-18.834 45.319,-51.205 v -263.675 c 0,-32.37 -7.062,-51.204 -45.319,-51.204 -38.256,0 -45.319,18.834 -45.319,51.204 v 263.675 c 0,32.371 7.063,51.205 45.319,51.205 m 0,32.959 c -68.861,0 -81.81,-31.194 -81.81,-84.164 v -263.675 c 0,-53.559 12.949,-84.164 81.81,-84.164 68.862,0 81.81,30.605 81.81,84.164 v 263.675 c 0,52.97 -12.948,84.164 -81.81,84.164 m 171.263,-84.164 c 0,32.371 7.063,51.205 45.319,51.205 38.257,0 45.319,-18.834 45.319,-51.205 v -60.621 c 0,-5.886 2.943,-8.829 8.829,-8.829 h 18.833 c 5.886,0 8.829,2.943 8.829,8.829 v 60.621 c 0,52.97 -12.948,84.164 -81.81,84.164 -68.861,0 -81.81,-31.194 -81.81,-84.164 0,-64.153 14.714,-87.107 35.903,-110.06 l 58.856,-65.919 c 28.25,-31.783 32.37,-47.674 32.37,-87.696 0,-32.37 -7.062,-51.204 -45.319,-51.204 -38.256,0 -45.319,18.834 -45.319,51.204 v 60.622 c 0,5.886 -2.943,8.829 -8.828,8.829 h -18.834 c -5.886,0 -8.829,-2.943 -8.829,-8.829 v -60.622 c 0,-53.559 12.949,-84.164 81.81,-84.164 68.862,0 81.81,30.605 81.81,84.164 0,64.153 -14.714,86.518 -35.902,110.061 l -58.856,65.919 c -27.663,31.193 -32.371,46.496 -32.371,87.695 m 321.934,-344.896 h 21.189 c 4.708,0 7.65,3.531 7.062,9.417 L 602.074,37.962 c -0.588,5.886 -3.531,9.417 -10.005,9.417 h -41.2 c -6.474,0 -9.417,-3.531 -10.005,-9.417 l -62.976,-407.283 c -0.588,-5.297 1.766,-9.417 7.063,-9.417 h 21.188 c 5.886,0 8.24,4.12 8.829,8.829 l 13.536,87.695 h 85.93 l 13.537,-87.695 c 0.588,-5.298 3.531,-8.829 8.828,-8.829 m -78.867,289.571 12.36,100.056 h 2.354 l 12.36,-100.056 24.131,-160.088 h -75.924 z"
         style="fill:#ffffff;fill-opacity:1;fill-rule:nonzero;stroke:none"
         transform="matrix(1.3333333,0,0,-1.3333333,5001.8408,848.7964)"
         clip-path="url(#clipPath15)" />
    </g>
  </g>
</svg>
