<?xml version="1.0" encoding="UTF-8" standalone="no"?>
<!-- Created with Inkscape (http://www.inkscape.org/) -->

<svg
   width="193.96632mm"
   height="184.97247mm"
   viewBox="0 0 193.96632 184.97247"
   version="1.1"
   id="svg1"
   xml:space="preserve"
   inkscape:version="1.3 (0e150ed, 2023-07-21)"
   sodipodi:docname="rosacanine_logo_2_lignes.svg"
   xmlns:inkscape="http://www.inkscape.org/namespaces/inkscape"
   xmlns:sodipodi="http://sodipodi.sourceforge.net/DTD/sodipodi-0.dtd"
   xmlns="http://www.w3.org/2000/svg"
   xmlns:svg="http://www.w3.org/2000/svg"><sodipodi:namedview
     id="namedview1"
     pagecolor="#ffffff"
     bordercolor="#000000"
     borderopacity="0.25"
     inkscape:showpageshadow="false"
     inkscape:pageopacity="0.0"
     inkscape:pagecheckerboard="true"
     inkscape:deskcolor="#d1d1d1"
     inkscape:document-units="mm"
     showgrid="true"
     showborder="false"
     borderlayer="false"
     shape-rendering="auto"
     labelstyle="default"
     inkscape:zoom="0.56292375"
     inkscape:cx="868.67893"
     inkscape:cy="348.18215"
     inkscape:window-width="1280"
     inkscape:window-height="747"
     inkscape:window-x="0"
     inkscape:window-y="25"
     inkscape:window-maximized="0"
     inkscape:current-layer="g45" /><defs
     id="defs1" /><g
     inkscape:label="Calque 1"
     inkscape:groupmode="layer"
     id="layer1"
     transform="translate(-3.2167126,-1.5171292)"><g
       id="g45"
       transform="matrix(5.0733728,0,0,5.0733728,-156.15035,-367.48106)"><path
         style="fill:#ffffff"
         d="m 39.318602,109.12489 c -0.03104,-0.031 -0.05644,-0.14543 -0.05644,-0.2542 0,-0.4512 2.122342,-13.860506 2.210582,-13.966829 0.129871,-0.156484 1.791927,-0.165159 1.920171,-0.01002 0.04812,0.05821 0.574942,3.261058 1.170721,7.117439 0.925228,5.98887 1.065265,7.02298 0.960046,7.08954 -0.06775,0.0429 -0.343079,0.0785 -0.611836,0.0792 -0.602694,0.002 -0.587102,0.0312 -0.824147,-1.56503 -0.09681,-0.65194 -0.196492,-1.29011 -0.221508,-1.41817 l -0.04549,-0.23284 h -1.384567 c -1.246654,0 -1.38863,0.0148 -1.425354,0.14817 -0.02243,0.0815 -0.12619,0.71966 -0.230573,1.41816 -0.25981,1.73857 -0.213834,1.651 -0.866845,1.651 -0.296075,0 -0.563718,-0.0254 -0.594762,-0.0564 z m 4.305745,-4.53672 c -0.09701,-0.42286 -0.806179,-5.289033 -0.98663,-6.770042 -0.106164,-0.871317 -0.200454,-1.576167 -0.209533,-1.566334 -0.0091,0.0098 -0.09921,0.684628 -0.200286,1.499545 -0.101077,0.814917 -0.371569,2.709311 -0.601092,4.209761 -0.229523,1.50045 -0.417315,2.74823 -0.417315,2.77283 0,0.0246 0.553176,0.0447 1.22928,0.0447 h 1.229279 z m 3.190077,4.49157 c -0.147181,-0.14718 -0.147181,-14.042953 0,-14.190134 0.06158,-0.06158 0.360583,-0.1016 0.759021,-0.1016 0.547386,0 0.671127,0.02561 0.739308,0.153007 0.09819,0.183461 2.286614,8.908837 2.552342,10.176327 0.102509,0.48895 0.191258,0.89537 0.197221,0.90316 0.006,0.008 0.01084,-2.50681 0.01084,-5.588 v -5.602161 l 0.493977,-0.0256 c 0.291347,-0.0151 0.543143,0.0152 0.613834,0.07387 0.101595,0.08432 0.119856,1.165969 0.119856,7.099501 0,5.33158 -0.02422,7.02425 -0.1016,7.10164 -0.0617,0.0617 -0.361648,0.1016 -0.763815,0.1016 -0.606286,0 -0.66906,-0.0161 -0.743254,-0.1905 -0.09188,-0.21599 -2.281075,-8.95036 -2.519988,-10.05417 l -0.155768,-0.719666 0.03666,5.297626 c 0.02724,3.93537 0.01127,5.34507 -0.0621,5.48216 -0.08394,0.15685 -0.172008,0.18455 -0.586852,0.18455 -0.268448,0 -0.533808,-0.0457 -0.589688,-0.1016 z m 1.139807,-11.180234 c -0.02349,-0.05821 -0.04271,-0.01058 -0.04271,0.105833 0,0.116417 0.01922,0.164042 0.04271,0.105833 0.02349,-0.05821 0.02349,-0.153458 0,-0.211666 z m 6.315093,11.225764 c -0.08334,-0.0336 -0.105833,-1.38871 -0.105833,-6.3766 0,-5.697566 0.01345,-6.339044 0.133924,-6.385273 0.173293,-0.0665 0.913525,-0.0665 1.086818,0 0.120469,0.04623 0.133924,0.68753 0.133924,6.383273 0,5.69575 -0.01346,6.33705 -0.133924,6.38328 -0.157528,0.0604 -0.961869,0.0571 -1.114909,-0.005 z m 3.199146,-0.1077 c -0.121525,-0.22707 -0.121525,-13.838726 0,-14.065797 0.07521,-0.14054 0.18182,-0.163767 0.751633,-0.163767 0.433926,0 0.694947,0.0373 0.753341,0.107665 0.09439,0.113731 2.243045,8.619819 2.560629,10.136999 0.102349,0.48895 0.190813,0.89538 0.196587,0.90317 0.0058,0.008 0.0105,-2.48776 0.0105,-5.54567 v -5.559831 h 0.592667 0.592667 l 0.02165,7.106701 c 0.01715,5.62938 -4.48e-4,7.12074 -0.08467,7.1742 -0.192643,0.12231 -1.303366,0.082 -1.414004,-0.0513 -0.11401,-0.13737 -1.871473,-6.97262 -2.407442,-9.363196 l -0.351606,-1.568265 0.03234,5.400111 c 0.02519,4.20723 0.0092,5.42802 -0.0725,5.52643 -0.07104,0.0856 -0.264271,0.12632 -0.59949,0.12632 -0.402397,0 -0.511,-0.0305 -0.582299,-0.16376 z m 7.295287,0.0622 c -0.147181,-0.14718 -0.147181,-14.04295 0,-14.190131 0.160719,-0.160719 4.669033,-0.14333 4.803363,0.01853 0.05743,0.0692 0.08875,0.311483 0.07387,0.5715 l -0.02583,0.451373 -1.799167,0.02285 -1.799166,0.02285 v 2.705602 2.705606 l 1.418166,0.0232 1.418167,0.0232 v 0.55033 0.55033 l -1.418167,0.0232 -1.418166,0.0232 v 2.70561 2.7056 l 1.799166,0.0228 1.799167,0.0229 0.02583,0.45137 c 0.01488,0.26002 -0.01644,0.5023 -0.07387,0.5715 -0.13433,0.16186 -4.642644,0.17925 -4.803363,0.0185 z M 54.156978,94.540505 c -0.35119,-0.35119 -0.351374,-0.903573 -4.32e-4,-1.296344 0.218581,-0.244636 0.297444,-0.276503 0.684278,-0.276503 0.386834,0 0.465697,0.03187 0.684278,0.276503 0.350942,0.392771 0.350758,0.945154 -4.32e-4,1.296344 -0.209512,0.209511 -0.314443,0.247487 -0.683846,0.247487 -0.369403,0 -0.474334,-0.03798 -0.683846,-0.247487 z m -7.621703,-2.795821 c -0.723184,-0.133067 -1.2411,-0.486781 -1.525868,-1.042101 -0.30086,-0.586702 -0.34021,-1.429703 -0.309241,-6.624924 0.02557,-4.289789 0.0488,-5.05127 0.16442,-5.391369 0.202741,-0.596341 0.447334,-0.881131 0.982448,-1.143904 0.45875,-0.225274 0.546185,-0.238061 1.62779,-0.238061 1.300145,0 1.634511,0.08247 2.122786,0.523602 0.646788,0.584333 0.628881,0.395526 0.628881,6.630732 0,6.18948 0.0046,6.13372 -0.553543,6.691876 -0.171222,0.171222 -0.49772,0.375481 -0.725552,0.45391 -0.479731,0.165143 -1.845294,0.244535 -2.412121,0.140239 z m 1.87669,-1.333924 c 0.135001,-0.07975 0.312747,-0.280019 0.394991,-0.445048 0.138022,-0.276952 0.149535,-0.697694 0.149535,-5.46472 0,-5.039888 -0.0042,-5.171826 -0.172214,-5.461 -0.260459,-0.448181 -0.638385,-0.606808 -1.368657,-0.574469 -0.694804,0.03077 -0.989487,0.189889 -1.231831,0.665154 -0.136036,0.266784 -0.148007,0.698642 -0.147694,5.327982 2.09e-4,3.097812 0.03294,5.155038 0.08501,5.342474 0.101178,0.364236 0.29917,0.55856 0.734281,0.720677 0.401834,0.149719 1.213114,0.09184 1.556579,-0.11105 z m 5.412859,1.335068 c -0.863832,-0.159779 -1.404513,-0.572476 -1.659711,-1.266845 -0.187268,-0.509537 -0.282265,-3.579079 -0.116931,-3.778294 0.132301,-0.159412 1.057181,-0.175014 1.157812,-0.01953 0.03767,0.05821 0.08755,0.798509 0.11083,1.645114 0.03825,1.390713 0.05941,1.562321 0.219281,1.778 0.262288,0.35385 0.59831,0.48835 1.220052,0.48835 0.621737,0 0.957761,-0.134498 1.220053,-0.488342 0.150965,-0.203661 0.181027,-0.38397 0.204728,-1.227979 0.04442,-1.581791 -0.02253,-1.707543 -2.217158,-4.16473 -0.670219,-0.750401 -1.317311,-1.545766 -1.437982,-1.767478 -0.632655,-1.162395 -0.749744,-3.637467 -0.221101,-4.673694 0.382351,-0.74947 1.202664,-1.049714 2.69786,-0.987447 1.393424,0.05803 1.92105,0.329586 2.299667,1.183585 0.180997,0.408254 0.200851,0.59087 0.232038,2.134266 0.0389,1.925358 0.04364,1.911576 -0.656454,1.909225 -0.648814,-0.0022 -0.634783,0.03385 -0.682317,-1.752304 -0.04706,-1.768218 -0.09099,-1.919573 -0.631587,-2.176105 -0.396111,-0.187967 -1.281069,-0.177013 -1.649192,0.02041 -0.511686,0.27442 -0.611217,0.581245 -0.581509,1.792625 0.02374,0.968128 0.04651,1.09891 0.267186,1.534402 0.146047,0.288222 0.77402,1.073303 1.591502,1.989667 1.562345,1.751323 1.809476,2.080744 2.028527,2.703984 0.314647,0.895226 0.419776,2.393778 0.237628,3.38723 -0.161852,0.882754 -0.529945,1.343906 -1.286881,1.612224 -0.423718,0.150199 -1.808336,0.223174 -2.346341,0.123662 z m -12.049359,-0.11167 c -0.07905,-0.05821 -0.881316,-2.029883 -1.782819,-4.381499 l -1.639096,-4.275667 -0.519363,-0.02521 -0.519363,-0.02521 v 3.30604 c 0,1.818322 -0.0095,3.306021 -0.02117,3.305998 -0.01164,-2.4e-5 -0.211718,-0.07247 -0.444613,-0.160989 -0.232895,-0.08852 -0.604559,-0.188105 -0.825919,-0.2213 l -0.402474,-0.06035 0.02159,-8.181824 0.02159,-8.181824 h 2.159 c 2.063557,0 2.187063,0.0092 2.793796,0.207858 0.82187,0.269113 1.493458,0.889729 1.765778,1.63176 0.452652,1.233404 0.461584,5.253795 0.01429,6.430982 -0.328484,0.8645 -0.904765,1.42113 -1.737528,1.678279 -0.186267,0.05752 -0.368429,0.131641 -0.404805,0.16472 -0.03637,0.03308 0.65895,1.951877 1.545167,4.263996 0.886217,2.31212 1.611304,4.239881 1.611304,4.283915 0,0.04403 -0.05987,0.139933 -0.133047,0.213109 -0.166799,0.166799 -1.285239,0.18706 -1.502312,0.02721 z M 39.812491,81.209194 c 0.422407,-0.182332 0.775745,-0.513591 0.959131,-0.899202 0.120221,-0.252791 0.140973,-0.619791 0.141232,-2.497667 2.89e-4,-2.092361 -0.0087,-2.218098 -0.181957,-2.54 -0.423973,-0.787804 -0.877526,-0.989816 -2.336573,-1.040705 l -1.0795,-0.03765 v 3.618355 3.618356 l 1.0795,-0.03765 c 0.7664,-0.02673 1.177728,-0.08005 1.418167,-0.183837 z m 18.925612,10.406945 c -0.08197,-0.09876 0.115031,-1.535037 0.972578,-7.090833 0.591452,-3.831839 1.113957,-7.014606 1.161122,-7.072814 0.102219,-0.126152 1.889643,-0.15122 1.966061,-0.02757 0.06309,0.102082 2.16296,13.673112 2.16296,13.978769 0,0.276849 -0.120626,0.336305 -0.682306,0.336305 -0.338808,0 -0.435744,-0.03477 -0.531079,-0.1905 -0.06414,-0.104775 -0.201534,-0.78105 -0.305315,-1.502834 -0.103781,-0.721783 -0.207146,-1.379008 -0.229702,-1.4605 -0.03692,-0.133375 -0.178806,-0.148166 -1.421325,-0.148166 H 60.45078 l -0.185682,1.2065 c -0.102125,0.663575 -0.207594,1.351932 -0.234375,1.529682 -0.02678,0.17775 -0.103285,0.377775 -0.17001,0.4445 -0.165197,0.165197 -0.984941,0.163346 -1.12261,-0.0025 z m 4.28064,-4.596314 c -0.102397,-0.494622 -0.729251,-4.804042 -0.938635,-6.45282 -0.12102,-0.95296 -0.230013,-1.742631 -0.242207,-1.754825 -0.01219,-0.01219 -0.08907,0.557951 -0.170835,1.266987 -0.136021,1.179509 -0.9246,6.535877 -1.028056,6.982992 l -0.04408,0.1905 h 1.236007 1.236007 z"
         id="path16"
         sodipodi:nodetypes="sssssccsscsssssssscsssscsssssscscssssssscssssssssscsssscccssssscscccsssscssssscssscccccccccccccccssccssssssssssssssssssssscssssssssssssssssssssscssssssssssssscccsssscccsssssssssssssscscccsscssssssssscsssccssssscccs" /><path
         d="m 33.57177,109.07902 c -1.216501,-0.30143 -1.855435,-1.02315 -2.068518,-2.33654 -0.119318,-0.73545 -0.121861,-13.549707 -0.0028,-14.308157 0.113625,-0.72406 0.508387,-1.52655 0.896593,-1.82265 0.713876,-0.5445 2.107332,-0.80091 3.475616,-0.63953 1.408337,0.16609 2.063054,0.53367 2.479906,1.39229 0.138731,0.28576 0.291102,0.76721 0.338601,1.06989 0.1265,0.8061 0.115257,4.67985 -0.01396,4.80907 -0.139687,0.13969 -1.373048,0.13618 -1.489249,-0.004 -0.0535,-0.0647 -0.09968,-0.96254 -0.118659,-2.30717 -0.03392,-2.40282 -0.06584,-2.57948 -0.544897,-3.01531 -0.334454,-0.30428 -0.712278,-0.41369 -1.428595,-0.41369 -0.740227,0 -1.098822,0.11055 -1.458905,0.44975 -0.502127,0.47301 -0.488428,0.26003 -0.488428,7.59359 0,7.125307 -0.0028,7.070447 0.393296,7.574057 0.345967,0.43983 1.114711,0.63362 2.049923,0.51678 0.610471,-0.0763 0.978214,-0.32899 1.239781,-0.85197 0.207045,-0.41397 0.212289,-0.47184 0.240152,-2.65059 l 0.02849,-2.22738 0.225515,-0.0871 c 0.318597,-0.12306 1.275762,-0.0525 1.373014,0.10125 0.107535,0.16998 0.09903,4.14716 -0.01031,4.82111 -0.218034,1.34391 -0.907437,2.09095 -2.178518,2.36064 -0.58646,0.12444 -2.398545,0.10957 -2.938,-0.0241 z"
         style="fill:#ff008c;fill-opacity:1"
         id="path1" /></g></g></svg>
