<?xml version="1.0" standalone="no"?>
<!DOCTYPE svg PUBLIC "-//W3C//DTD SVG 20010904//EN"
 "http://www.w3.org/TR/2001/REC-SVG-20010904/DTD/svg10.dtd">
<svg version="1.0" xmlns="http://www.w3.org/2000/svg"
 width="500.000000pt" height="500.000000pt" viewBox="0 0 500.000000 500.000000"
 preserveAspectRatio="xMidYMid meet">
<metadata>
Created by potrace 1.14, written by Peter Selinger 2001-2017
</metadata>
<g transform="translate(0.000000,500.000000) scale(0.100000,-0.100000)"
fill="#000000" stroke="none">
<path d="M2518 4891 c-129 -61 -161 -104 -234 -314 -59 -167 -57 -165 -137
-202 -82 -37 -127 -81 -144 -140 -31 -106 -25 -395 12 -559 15 -65 18 -85 21
-121 2 -22 5 -61 7 -87 6 -72 -7 -78 -42 -22 -17 27 -31 54 -31 61 0 6 -3 13
-7 15 -8 3 -38 64 -42 83 -1 6 -8 17 -16 25 -7 8 -16 30 -19 49 -2 19 -14 47
-25 61 -11 15 -32 63 -46 106 -31 90 -42 106 -64 101 -21 -5 -106 37 -123 61
-7 10 -35 35 -62 55 -27 21 -65 61 -85 90 -41 61 -50 73 -73 94 -9 9 -14 21
-12 27 4 12 -58 56 -80 56 -7 0 -18 6 -24 13 -20 24 -108 11 -179 -25 -96 -49
-99 -53 -113 -185 -5 -40 -10 -76 -13 -80 -3 -4 -8 -35 -11 -68 -9 -72 -16
-105 -25 -106 -3 0 -15 -3 -26 -6 -37 -11 -134 -7 -149 6 -16 13 -69 9 -89 -7
-7 -5 -23 -12 -37 -15 -41 -10 -90 -63 -110 -120 -14 -39 -18 -72 -15 -135 2
-46 8 -89 14 -95 5 -7 9 -16 9 -20 0 -4 4 -20 10 -35 5 -15 15 -45 22 -67 27
-90 71 -175 157 -307 38 -58 70 -119 78 -152 24 -90 68 -154 175 -249 29 -25
33 -47 9 -47 -12 0 -182 84 -244 120 -94 55 -161 90 -175 90 -8 0 -32 9 -53
18 -29 14 -59 18 -140 16 -56 -1 -107 -2 -113 -3 -10 -1 -48 -32 -104 -84 -8
-8 -37 -43 -65 -78 -27 -35 -56 -70 -62 -77 -12 -12 -19 -31 -27 -73 -2 -8 -6
-21 -10 -31 -13 -29 -3 -321 12 -326 6 -2 12 -11 12 -20 0 -8 8 -24 17 -34 13
-14 18 -48 24 -151 8 -141 12 -167 35 -237 9 -25 17 -52 19 -61 5 -24 54 -118
86 -165 35 -51 130 -145 184 -182 22 -15 41 -30 43 -34 2 -5 9 -8 15 -8 6 0
27 -11 46 -25 40 -27 147 -68 207 -80 22 -4 50 -9 64 -12 49 -10 85 -9 130 2
51 12 109 13 160 1 91 -22 260 -126 260 -161 0 -15 -29 -34 -62 -40 -11 -3
-28 -11 -38 -20 -9 -8 -25 -15 -36 -15 -10 -1 -30 -7 -44 -15 -14 -8 -36 -14
-51 -15 -33 0 -47 -15 -42 -44 5 -22 119 -151 134 -151 4 0 16 -8 26 -18 39
-39 98 -87 107 -87 4 0 22 -15 40 -33 33 -34 50 -44 186 -102 125 -54 158 -72
235 -126 121 -85 147 -101 225 -131 41 -16 89 -36 107 -44 17 -8 34 -14 37
-14 3 0 34 -14 68 -30 34 -17 80 -33 100 -37 21 -3 38 -8 38 -12 0 -3 25 -7
56 -8 32 -1 72 -10 95 -21 36 -18 57 -20 202 -17 89 2 180 6 202 10 22 4 49 9
60 10 58 6 116 18 121 26 3 5 10 7 15 4 5 -4 9 -2 9 4 0 5 14 12 30 16 36 8
115 81 131 121 6 16 13 47 14 69 2 22 4 43 4 46 1 3 13 11 28 18 15 7 33 21
41 32 7 10 18 19 23 19 13 0 123 70 127 81 2 5 8 9 13 9 17 0 137 131 185 202
27 40 65 89 84 108 53 52 69 80 71 130 4 87 128 259 219 303 73 35 87 60 60
104 -18 31 -85 71 -130 80 -59 11 -88 8 -145 -15 -53 -22 -79 -25 -220 -29
-88 -2 -176 -5 -195 -5 -81 -3 -134 12 -248 69 -86 43 -101 58 -75 70 19 10
29 10 53 0 8 -3 38 -9 65 -13 28 -4 59 -9 70 -11 67 -11 184 -3 235 17 30 12
71 26 90 32 114 34 233 116 306 210 42 54 189 148 229 146 55 -2 131 23 280
92 44 21 82 37 85 37 12 -3 221 148 258 186 22 23 60 62 84 87 24 25 50 61 58
80 8 19 24 44 37 55 26 23 31 70 8 79 -8 3 -20 16 -26 29 -14 30 -57 56 -86
51 -13 -2 -23 1 -23 6 0 14 -88 5 -165 -18 -42 -12 -63 -5 -80 27 -13 27 -13
30 18 57 18 17 41 41 52 54 23 28 65 136 65 168 0 11 9 27 20 35 28 19 33 54
12 75 -9 10 -29 33 -43 52 -44 58 -72 84 -113 105 -21 11 -48 31 -60 45 -20
24 -106 67 -106 54 0 -4 -7 -1 -15 6 -8 7 -21 10 -29 7 -8 -3 -41 -9 -73 -13
-32 -3 -65 -10 -73 -14 -21 -11 -114 5 -163 29 -72 34 -104 31 -186 -19 -71
-44 -211 -169 -211 -189 0 -10 -103 -85 -199 -145 -25 -16 -95 -60 -154 -98
-59 -38 -118 -73 -131 -78 -13 -4 -61 -26 -107 -48 -46 -22 -95 -43 -109 -47
-40 -12 -112 -47 -154 -76 -27 -18 -40 -34 -42 -54 -3 -33 -18 -45 -56 -45
-42 0 -30 46 16 63 10 4 16 10 13 14 -7 7 20 63 31 63 4 0 24 16 46 34 21 19
50 40 65 47 14 8 28 16 31 19 3 3 28 21 55 40 44 31 85 64 119 96 6 5 27 21
47 35 125 85 283 250 329 344 8 17 30 55 47 85 40 69 71 161 72 220 1 25 3 56
5 70 2 14 4 31 5 38 0 7 11 17 24 23 22 10 43 45 49 84 3 20 -1 21 -47 24 -34
1 -33 28 3 77 35 47 52 79 57 102 5 30 55 176 64 190 5 8 2 40 -6 75 -8 34
-15 69 -17 77 -10 57 -12 58 -94 53 -112 -6 -109 -6 -136 14 -29 21 -44 51
-52 101 -7 41 -44 112 -59 112 -14 0 -38 40 -41 69 -4 35 -28 56 -81 69 -52
12 -139 18 -163 9 -8 -2 -49 -16 -90 -30 -41 -14 -95 -33 -119 -42 -31 -11
-47 -13 -55 -5 -5 5 -17 10 -26 10 -22 0 -66 65 -119 173 -23 48 -45 88 -49
88 -43 7 -71 0 -154 -40z"/>
</g>
</svg>
